<?xml version="1.0" encoding="UTF-8"?>
<svg xmlns="http://www.w3.org/2000/svg" xmlns:xlink="http://www.w3.org/1999/xlink" width="512" height="512" viewBox="0 0 58 58" version="1.1"><!-- Generator: Sketch 51.3 (57544) - http://www.bohemiancoding.com/sketch --><title>007 - Chocolates</title><desc>Created with Sketch.</desc><defs/><g id="Page-1" stroke="none" stroke-width="1" fill="none" fill-rule="evenodd"><g id="007---Chocolates" fill-rule="nonzero"><path d="M57.8635,17.7412 L57.98,15 C57.61,5 51.3,0 42.96,0 C37.0909675,0.0271296933 31.7183877,3.29839961 29,8.5 C26.594427,3.92701838 22.1216885,0.803556009 17,0.12 L13,0.11 C5.69,0.86 0.36,5.83 0.02,15 L0.0291,15.2125 L0,15 L0,22.94 C0,33.56 6.44,37.81 10.74,42.06 C11.33,42.64 12.1,43.37 13,44.18 C14.17,45.25 15.55,46.47 17,47.74 C22.5,52.55 29,58 29,58 C29,58 37.21,51.13 42.97,46 L50,39.49 C53.86,35.88 58,31.46 58,22.94 L58,17 L57.8635,17.7412 Z M25.9,48.38 C26.8332,49.1711 27.5912,49.8129 28.133,50.2709 C26.96,49.2829 24.7151,47.3865 22.163,45.2015 C23.1952,46.0815 24.183,46.9236 25.0605,47.67 C25.35,47.92 25.63,48.15 25.9,48.38 Z M13,37.18 L17,40.74 C17.3815,41.0739 17.77,41.4115 18.1552,41.7468 C17.7670667,41.4095333 17.382,41.0739333 17,40.74 C15.55,39.48 14.17,38.25 13,37.18 Z M28.7881,50.822 C28.82223,50.8551544 28.859734,50.8846482 28.9,50.91 C28.97,50.97 29,51 29,51 L28.7881,50.822 Z" id="Shape" fill="#E64C3C"/><path d="M0,15 L0,22.94 C0,33.56 6.44,37.81 10.74,42.06 C11.33,42.64 12.1,43.37 13,44.18 L13,37.18 C12.1,36.37 11.33,35.64 10.74,35.06 C7.52,31.87 3.09,28.68 1.07,22.81 L0,15 Z" id="Shape" fill="#C03A2B"/><path d="M58,17 L58,22.94 C58,31.46 53.86,35.88 50,39.49 L42.97,46 C37.21,51.13 29,58 29,58 L29,51 C29,51 33.39,47.33 38,43.35 L50,32.49 C52.65,30 55.44,27.13 56.93,22.81 L58,17 Z" id="Shape" fill="#802F34"/><path d="M57.81,19 C57.6472233,20.2966618 57.3523581,21.573294 56.93,22.81 C55.44,27.13 52.65,30 50,32.49 L38,43.35 C33.39,47.33 29,51 29,51 C29,51 28.97,50.97 28.9,50.91 C28.8498987,50.8779289 28.8030141,50.8410911 28.76,50.8 C28.32,50.43 27.28,49.55 25.9,48.38 C25.63,48.15 25.35,47.92 25.06,47.67 C23.99,46.76 22.76,45.71 21.48,44.62 C20.73,43.97 19.96,43.3 19.18,42.64 C18.45,42 17.72,41.37 17,40.74 L13,37.18 C12.1,36.37 11.33,35.64 10.74,35.06 C7.52,31.87 3.09,28.68 1.07,22.81 C0.647641888,21.573294 0.352776722,20.2966618 0.19,19 L0.02,15 C0.36,5.83 5.69,0.86 13,0.11 L17,0.12 C22.1216885,0.803556009 26.594427,3.92701838 29,8.5 C31.7183877,3.29839961 37.0909675,0.0271296933 42.96,0 C51.3,-2.22044605e-16 57.61,5 57.98,15 L57.81,19 Z" id="Shape" fill="#E64C3C"/><path d="M44,28.1852 C43.4123444,28.1467955 42.9657759,27.6414139 43,27.0535 L43,19.1317 C42.9518951,18.7448039 43.1312851,18.3648723 43.4606042,18.1561822 C43.7899234,17.9474921 44.2100766,17.9474921 44.5393958,18.1561822 C44.8687149,18.3648723 45.0481049,18.7448039 45,19.1317 L45,27.0535 C45.0342241,27.6414139 44.5876556,28.1467955 44,28.1852 Z" id="Shape" fill="#E57E25"/><path d="M49,46 L39,46 C38.4477153,46 38,45.5522847 38,45 L38,31 L42.72,27.067 C43.4617029,26.4488887 44.5390971,26.4488887 45.2808,27.067 L50,31 L50,45 C50,45.5522847 49.5522847,46 49,46 Z" id="Shape" fill="#FB7B76"/><path d="M17,40.74 L17,47.74 C15.55,46.47 14.17,45.25 13,44.18 L13,37.18 C14.17,38.25 15.55,39.48 17,40.74 Z" id="Shape" fill="#D25627"/><path d="M29,51 L29,58 C29,58 22.5,52.55 17,47.74 L17,40.74 C22.5,45.55 29,51 29,51 Z" id="Shape" fill="#C03A2B"/><path d="M43.9658,34.5 C44.4310405,33.5871669 45.3654843,33.0089697 46.39,33 C47.1287805,32.9650419 47.8453729,33.2576934 48.348473,33.7998271 C48.8515731,34.3419608 49.0899625,35.0783846 49,35.8125 C49,37.6875 47.8813,38.4375 47.1355,39.1875 C46.3897,39.9375 43.9658,42 43.9658,42 C43.9658,42 41.542,39.9375 40.7958,39.1875 C40.0496,38.4375 38.9312,37.6875 38.9312,35.8125 C38.8412083,35.0782395 39.0796999,34.3416727 39.5829832,33.7995077 C40.0862666,33.2573428 40.8030834,32.9647977 41.542,33 C42.566391,33.0090506 43.5006776,33.5872459 43.9658,34.5 Z" id="Shape" fill="#C03A2B"/><path d="M43.9658,34.5 C44.3275698,33.7900725 45.0542412,33.340355 45.851,33.3333 C46.4256506,33.3059606 46.9830928,33.5335328 47.3744273,33.9552294 C47.7657618,34.3769261 47.9511235,34.9497891 47.881,35.5208 C47.837802,36.5752597 47.3005794,37.5478177 46.431,38.1458 C45.851,38.7292 43.9657,40.3333 43.9657,40.3333 C43.9657,40.3333 42.0805,38.7292 41.5004,38.1458 C40.6308206,37.5478177 40.093598,36.5752597 40.0504,35.5208 C39.9802765,34.9497891 40.1656382,34.3769261 40.5569727,33.9552294 C40.9483072,33.5335328 41.5057494,33.3059606 42.0804,33.3333 C42.877231,33.3402808 43.603997,33.7900092 43.9658,34.5 Z" id="Shape" fill="#E64C3C"/><path d="M58,15.94 C58.0005759,16.9629652 57.9371185,17.9849635 57.81,19 L25.99,19 L25.99,15 L57.98,15 C57.99,15.31 58,15.62 58,15.94 Z" id="Shape" fill="#E57E25"/><path d="M4.01,15 L4.01,19 L0.19,19 C0.0628815221,17.9849635 -0.000575886611,16.9629652 4.16333634e-16,15.94 C4.16333634e-16,15.62 0.01,15.31 0.02,15 L4.01,15 Z" id="Shape" fill="#E57E25"/><path d="M17,0.12 L17,13.54 L13,13.54 L13,0.11 C13.6771969,0.0326721035 14.3584145,-0.00406022082 15.04,-1.38777878e-17 C15.6952118,-0.00142780631 16.3498561,0.0386524543 17,0.12 Z" id="Shape" fill="#E57E25"/><path d="M17,20.46 L17,40.74 C15.55,39.47 14.17,38.25 13,37.18 L13,20.46 L17,20.46 Z" id="Shape" fill="#E57E25"/><path d="M12.54,20.15 L7.95,21.68 C7.06331105,21.9780181 6.08825981,21.8440536 5.31479974,21.3179437 C4.54133967,20.7918338 4.05855033,19.9341707 4.01,19 C4.00169217,18.9470944 3.9983443,18.8935284 4,18.84 L4,15.16 C3.9983443,15.1064716 4.00169217,15.0529056 4.01,15 C4.05855033,14.0658293 4.54133967,13.2081662 5.31479974,12.6820563 C6.08825981,12.1559464 7.06331105,12.0219819 7.95,12.32 L12.54,13.85 L12.54,20.15 Z" id="Shape" fill="#F29C1F"/><path d="M17.46,13.85 L22.05,12.32 C22.936689,12.0219819 23.9117402,12.1559464 24.6852003,12.6820563 C25.4586603,13.2081662 25.9414497,14.0658293 25.99,15 C25.9983078,15.0529056 26.0016557,15.1064716 26,15.16 L26,18.84 C25.9998487,19.8042087 25.5356936,20.7094285 24.7528294,21.272298 C23.9699652,21.8351674 22.9640626,21.9869005 22.05,21.68 L17.46,20.15 L17.46,13.85 Z" id="Shape" fill="#F29C1F"/><path d="M11,18 L9,18 C8.44771525,18 8,17.5522847 8,17 C8,16.4477153 8.44771525,16 9,16 L11,16 C11.5522847,16 12,16.4477153 12,17 C12,17.5522847 11.5522847,18 11,18 Z" id="Shape" fill="#E57E25"/><path d="M21,18 L19,18 C18.4477153,18 18,17.5522847 18,17 C18,16.4477153 18.4477153,16 19,16 L21,16 C21.5522847,16 22,16.4477153 22,17 C22,17.5522847 21.5522847,18 21,18 Z" id="Shape" fill="#E57E25"/><circle id="Oval" fill="#F0C419" cx="15" cy="17" r="4"/></g></g></svg>
