<?xml version="1.0" encoding="UTF-8"?>
<svg xmlns="http://www.w3.org/2000/svg" xmlns:xlink="http://www.w3.org/1999/xlink" width="512" height="512" viewBox="0 0 58 58" version="1.1"><!-- Generator: Sketch 51.3 (57544) - http://www.bohemiancoding.com/sketch --><title>034 - Looking for Love</title><desc>Created with Sketch.</desc><defs/><g id="Page-1" stroke="none" stroke-width="1" fill="none" fill-rule="evenodd"><g id="034---Looking-for-Love" transform="translate(0.000000, -1.000000)" fill-rule="nonzero"><path d="M42.69,44.69 C42.4247473,44.6903337 42.1703029,44.584921 41.983,44.3971 L36.623,39.0371 C36.2409064,38.6451971 36.2448748,38.0189334 36.6319041,37.6319041 C37.0189334,37.2448748 37.6451971,37.2409064 38.0371,37.623 L43.3971,42.983 C43.6830208,43.2690071 43.7685284,43.6990737 43.6137588,44.0727007 C43.4589893,44.4463278 43.0944141,44.6899541 42.69,44.69 Z" id="Shape" fill="#95A5A5"/><path d="M35.41,33.75 L37.95,36.29 C38.3399779,36.6830079 38.3399779,37.3169921 37.95,37.71 L37.33,38.33 L36.54,39.12 C36.1469921,39.5099779 35.5130079,39.5099779 35.12,39.12 L32.56,36.56 L35.41,33.75 Z" id="Shape" fill="#7F8C8D"/><path d="M40,21 C40.0031003,25.6551251 38.3795366,30.1650242 35.41,33.75 C35.01,34.23 34.58,34.7 34.14,35.14 C33.64,35.64 33.11,36.11 32.56,36.56 C25.2905565,42.425439 14.9289581,42.4770473 7.60144844,36.6843117 C0.273938764,30.8915761 -2.06727125,20.7978097 1.96204719,12.3709017 C5.99136563,3.94399383 15.3177128,-0.570940603 24.4269323,1.49553101 C33.5361517,3.56200263 40.0013455,11.6593265 40,21 Z" id="Shape" fill="#95A5A5"/><path d="M20,38 C12.0412939,37.9987341 5.14905999,32.4752101 3.41416192,24.7078983 C1.67926384,16.9405865 5.56627376,9.0094227 12.7680692,5.62192414 C19.9698646,2.23442557 28.5579441,4.29769884 33.4348801,10.5870946 C38.3118162,16.8764904 38.1716596,25.7078301 33.0976,31.8393 C32.765,32.2377 32.3983,32.6393 32.0185,33.0185 C31.5840108,33.4497801 31.1281014,33.8589305 30.6525,34.2444 C27.6436618,36.6919874 23.8785842,38.0193871 20,38 Z" id="Shape" fill="#7F8C8D"/><path d="M36,21 C35.9983527,24.7230347 34.7007733,28.3293861 32.33,31.2 C32.01,31.58 31.67,31.95 31.31,32.31 C30.903245,32.7180853 30.4760281,33.1052505 30.03,33.47 C27.1944499,35.7693059 23.6505997,37.0165433 20,37 C11.6056262,37.0024013 4.63663993,30.5170011 4.03638174,22.1441159 C3.43612355,13.7712306 9.4087098,6.35803975 17.7175806,5.16297336 C26.0264513,3.96790697 33.8461952,9.3973445 35.63,17.6 C35.8758848,18.7166248 35.9999435,19.8566233 36,21 Z" id="Shape" fill="#35495E"/><path d="M36,21 C35.9983527,24.7230347 34.7007733,28.3293861 32.33,31.2 C32.01,31.58 31.67,31.95 31.31,32.31 C30.903245,32.7180853 30.4760281,33.1052505 30.03,33.47 C27.1944499,35.7693059 23.6505997,37.0165433 20,37 C14.6477732,36.9983996 9.65152429,34.318218 6.69,29.86 C12.48,23.79 22.49,16.24 35.63,17.6 C35.8758848,18.7166248 35.9999435,19.8566233 36,21 Z" id="Shape" fill="#2C3E50"/><path d="M56.83,57.83 C55.2658084,59.3900038 52.7341916,59.3900038 51.17,57.83 L49.76,56.42 L49.76,56.41 L55.41,50.76 L56.83,52.17 C58.3900038,53.7341916 58.3900038,56.2658084 56.83,57.83 Z" id="Shape" fill="#BDC3C7"/><path d="M55.41,50.76 L49.76,56.41 L49.76,56.42 L43.39,50.05 C43.2027473,49.8631685 43.0975144,49.6095176 43.0975144,49.345 C43.0975144,49.0804824 43.2027473,48.8268315 43.39,48.64 L47.64,44.39 C47.8268315,44.2027473 48.0804824,44.0975144 48.345,44.0975144 C48.6095176,44.0975144 48.8631685,44.2027473 49.05,44.39 L55.41,50.76 Z" id="Shape" fill="#E64C3C"/><path d="M43.1005388,43.1005 L45.1005388,43.1005 C45.6528235,43.1005 46.1005388,43.5482153 46.1005388,44.1005 L46.1005388,47.1005 L42.1005388,47.1005 L42.1005388,44.1005 C42.1005388,43.5482153 42.548254,43.1005 43.1005388,43.1005 Z" id="Shape" fill="#7F8C8D" transform="translate(44.100539, 45.100500) rotate(-45.000000) translate(-44.100539, -45.100500) "/><path d="M20,16.1667 C18.9527602,14.2160324 16.9177042,12.9992562 14.7037,13 C11.4444,13 9,14.9792 9,18.9375 C9,22.8958 11.4444,24.4792 13.0741,26.0625 C14.7038,27.6458 20,32 20,32 C20,32 25.2963,27.6458 26.9259,26.0625 C28.5555,24.4792 31,22.8958 31,18.9375 C31,14.9792 28.5556,13 25.2963,13 C23.0822958,12.9992562 21.0472398,14.2160324 20,16.1667 Z" id="Shape" fill="#C03A2B"/><path d="M20,15.6667 C19.1181572,14.0240106 17.4044235,12.9993438 15.54,13 C12.7953,13 10.7368,14.6667 10.7368,18 C10.7368,21.3333 12.7953,22.6667 14.1676,24 C15.5399,25.3333 20,29 20,29 C20,29 24.46,25.3333 25.8324,24 C27.2048,22.6667 29.2632,21.3333 29.2632,18 C29.2632,14.6667 27.2047,13 24.46,13 C22.5955765,12.9993438 20.8818428,14.0240106 20,15.6667 Z" id="Shape" fill="#E64C3C"/></g></g></svg>
