<svg height="512" viewBox="0 0 58 54" width="512" xmlns="http://www.w3.org/2000/svg"><g id="Page-1" fill="none" fill-rule="evenodd"><g id="005---Online-Dating" fill-rule="nonzero"><path id="Shape" d="m44 12.84c-.0340231 2.8714182-.7906221 5.68803-2.2 8.19-.3686638.6870355-.7725341 1.3545897-1.21 2l-13.72 13.08c-1.17.82-2.38 1.67-3.67 2.53-.728.48-1.672.48-2.4 0-4.5677421-2.933519-8.8380176-6.3061993-12.75-10.07-.01 0-.02-.01-.03-.02-5.41-5.39-8.02-10.49-8.02-15.71 0-6.93 4.49-12.84 11-12.84 4.4051267.08105388 8.5007952 2.2815449 11 5.91 2.4992048-3.6284551 6.5948733-5.82894612 11-5.91.8568894-.00275322 1.7105696.10479704 2.54.32 5.11 1.31 8.46 6.53 8.46 12.52z" fill="#df4d60"/><path id="Shape" d="m37 6.84c-.0340231 2.8714182-.7906221 5.68803-2.2 8.19-.3686638.6870355-.7725341 1.3545897-1.21 2l-13.72 13.08c-1.17.82-2.38 1.67-3.67 2.53-.728.48-1.672.48-2.4 0-2.08-1.38-3.99-2.74-5.75-4.07-.01 0-.02-.01-.03-.02-5.41-5.39-8.02-10.49-8.02-15.71 0-6.93 4.49-12.84 11-12.84 4.4051267.08105388 8.5007952 2.2815449 11 5.91 2.4992048-3.6284551 6.5948733-5.82894612 11-5.91.8568894-.00275322 1.7105696.10479704 2.54.32.9729996 2.03512023 1.4721662 4.26427517 1.46 6.52z" fill="#ff5364"/><path id="Shape" d="m4 13c-.55228475 0-1-.4477153-1-1-.00444952-3.25679722 1.73190688-6.26767658 4.553-7.895.32064587-.15969772.70213259-.13620196 1.0007578.06163664.29862521.19783861.46902065.53996368.447.8975-.02202065.35753633-.23311193.67616564-.5537578.83586336-2.14213878 1.28531689-3.45116678 3.60184454-3.447 6.1 0 .5522847-.44771525 1-1 1z" fill="#fb7b76"/><path id="Shape" d="m55.117 51.117 2.54-2.541c.4346424-.4369974.4573503-1.1357028.052-1.6l-9.939-11.358c-.2356472-.2683874-.3361794-.6295149-.2731115-.9810599.0630678-.351545.2828642-.6552049.5971115-.8249401l7.097-3.812c.4144556-.2221507.656368-.670174.6147764-1.1385696-.0415916-.4683957-.3586619-.8667836-.8057764-1.0124304l-32.552-10.884c-.4214086-.1416043-.8866598-.032368-1.2010139.2819861s-.4235904.7796053-.2819861 1.2010139l10.884 32.552c.1456468.4471145.5440347.7641848 1.0124304.8057764.4683956.0415916.9164189-.2003208 1.1385696-.6147764l3.816-7.1c.1697352-.3142473.4733951-.5340437.8249401-.5971115.351545-.0630679.7126725.0374643.9810599.2731115l11.355 9.939c.4642972.4053503 1.1630026.3826424 1.6-.052l2.541-2.54" fill="#3f5c6c"/><circle id="Oval" cx="11" cy="4" fill="#fb7b76" r="1"/></g></g></svg>