<svg height="512" viewBox="0 0 58 58" width="512" xmlns="http://www.w3.org/2000/svg"><g id="Page-1" fill="none" fill-rule="evenodd"><g id="016---World-Love" fill-rule="nonzero"><path id="Shape" d="m42.5 3.33c-4.1603232-2.19636498-8.7955113-3.33971139-13.5-3.33-.7880257-.00350398-1.5757168.03321044-2.36.11-11.0365944.9113868-20.59012016 8.02989476-24.61997969 18.3448002-4.02985953 10.3149054-1.83212884 22.024431 5.66367707 30.1761139 7.49580592 8.151683 18.98034182 11.3216114 29.59630262 8.1690859-5.0114965-2.0270618-9.2054016-5.6650633-11.92-10.34-1.6144503-2.8420831-2.4943519-6.0420379-2.56-9.31-.0127671-2.0530224.4348757-4.082792 1.31-5.94 1.49-3.09 4.16-5.21 7.49-5.21 3.3685666.0218071 6.5686221 1.4763778 8.8 4 2.2313779-2.5236222 5.4314334-3.9781929 8.8-4 .5652658.0016605 1.1286408.0653755 1.68.19 3.35.76 5.81 3.79 6.72 7.6.2700647-1.5822903.4038887-3.1848326.4-4.79.0059301-10.7724387-5.9638824-20.65921848-15.5-25.67z" fill="#3b97d3"/><path id="Shape" d="m58 29c.0038887 1.6051674-.1299353 3.2077097-.4 4.79-.91-3.81-3.37-6.84-6.72-7.6.5768851-.7305161.9988074-1.5709581 1.24-2.47.46-1.85-.27-4.12-2.06-4.81-.85-.32-1.87-.28-2.55-.9-.95-.85-.65-2.38-.26-3.61-1.1856914-.1878235-2.3817777.2692795-3.14 1.2-.7427788.9177645-1.6394638 1.6994031-2.65 2.31-1.08.48-2.66.1-2.9-1.06-.18-.9.52-1.71 1.09-2.43 1.6894369-2.1766199 2.6044075-4.85466844 2.6-7.61-.1206567-1.16237972-.0360356-2.33692088.25-3.47v-.01c9.5361176 5.01078152 15.5059301 14.8975613 15.5 25.67z" fill="#41767f"/><path id="Shape" d="m14.75 25.01c-.4036281 1.3940957-.1496031 2.8961567.69 4.08.1848597.2731622.3958533.5276942.63.76 1.3140303 1.2143159 3.0633507 1.845514 4.85 1.75 1.05-.04 2.13-.27 3.19-.39-.8751243 1.857208-1.3227671 3.8869776-1.31 5.94.0656481 3.2679621.9455497 6.4679169 2.56 9.31-.03.06-.05.11-.08.17-.9 1.86-1.99 3.91-3.97 4.58-.6864964.2777247-1.4648391.2069663-2.09-.19-.6045625-.5894971-.8843644-1.4363641-.75-2.27.1439022-.8216686.1942233-1.6569986.15-2.49-.28-1.67-1.89-2.77-3.48-3.36s-3.31-.88-4.69-1.85c-1.38-.99-2.23-3.03-1.23-4.39.68-.92 1.97-1.24 2.63-2.17.94-1.35.14-3.18-.67-4.61-1.29951438-2.525753-2.91222638-4.8776247-4.8-7-1.17-1.2-2.55-2.28-3.23-3.81-.30680612-.6969517-.47005394-1.4485719-.48-2.21 4.36732622-9.51198227 13.5363467-15.91920347 23.97-16.75-.66 2.8-1.22 5.86.11 8.41.73 1.4 2.03 2.6 2.18 4.19.23 2.45-2.32 4.18-3.31 6.44-.63 1.44-.8 3.37-2.25 3.97-1.47.61-3.01-.64-4.59-.85-1.8147083-.1262112-3.4800245 1.0060385-4.03 2.74z" fill="#41767f"/><path id="Shape" d="m58 37.15c0 5.99-3.71 16.3-17.6 20.85-1.0604154-.3447522-2.101868-.7453109-3.12-1.2-5.0114965-2.0270618-9.2054016-5.6650633-11.92-10.34-1.6144503-2.8420831-2.4943519-6.0420379-2.56-9.31-.0127671-2.0530224.4348757-4.082792 1.31-5.94 1.49-3.09 4.16-5.21 7.49-5.21 3.3685666.0218071 6.5686221 1.4763778 8.8 4 2.2313779-2.5236222 5.4314334-3.9781929 8.8-4 .5652658.0016605 1.1286408.0653755 1.68.19 3.35.76 5.81 3.79 6.72 7.6.266344 1.1001318.4006243 2.2280863.4 3.36z" fill="#ff5364"/><path id="Shape" d="m26.8 38.151c-.5522847 0-1-.4477153-1-1 0-4.006 2.169-8.151 5.8-8.151.5522847 0 1 .4477153 1 1s-.4477153 1-1 1c-2.274 0-3.8 3.181-3.8 6.151 0 .5522847-.4477153 1-1 1z" fill="#fff"/><path id="Shape" d="m58 37.15c0 5.99-3.71 16.3-17.6 20.85-1.0604154-.3447522-2.101868-.7453109-3.12-1.2-4.7333779-1.9301833-8.7489593-5.2852382-11.49-9.6.0761548.0116228.1529821.0183035.23.02 2.3460563.0951325 4.6893185-.2473703 6.91-1.01 1.8134336-.4613216 3.4512986-1.4454316 4.71-2.83 1.34-1.68 1.63-3.93 2.13-6.02.7657384-3.479804 2.4154708-6.7034982 4.79-9.36.5561229-.5960286 1.1579533-1.1477065 1.8-1.65.9282912-.2350475 1.8824172-.3526335 2.84-.35.5652658.0016605 1.1286408.0653755 1.68.19 3.35.76 5.81 3.79 6.72 7.6.266344 1.1001318.4006243 2.2280863.4 3.36z" fill="#df4d60"/><path id="Shape" d="m54 38.151c-.5522847 0-1-.4477153-1-1 0-2.97-1.527-6.151-3.8-6.151-.5522847 0-1-.4477153-1-1s.4477153-1 1-1c3.631 0 5.8 4.145 5.8 8.151 0 .5522847-.4477153 1-1 1z" fill="#fff"/></g></g></svg>