<svg height="512" viewBox="0 0 58 58" width="512" xmlns="http://www.w3.org/2000/svg"><g id="Page-1" fill="none" fill-rule="evenodd"><g id="002---FInd-Love" fill-rule="nonzero"><path id="Shape" d="m25.26 38.41h-.01l-11.36 11.36-5.66-5.66 11.36-11.36z" fill="#805333"/><path id="Rectangle-path" d="m15.379 36.498h4.243v8.004h-4.243z" fill="#603e26" transform="matrix(.707 -.707 .707 .707 -23.512 24.237)"/><circle id="Oval" cx="37" cy="21" fill="#547580" r="21"/><circle id="Oval" cx="37" cy="21" fill="#84b5cb" r="17"/><circle id="Oval" cx="7" cy="51" fill="#547580" r="7"/><path id="Shape" d="m7 55c-2.209139 0-4-1.790861-4-4 0-.5522847.44771525-1 1-1s1 .4477153 1 1c0 1.1045695.8954305 2 2 2 .55228475 0 1 .4477153 1 1s-.44771525 1-1 1z" fill="#ecf0f1"/><path id="Shape" d="m46.54 6.94c-2.405081 1.93627101-4.4993688 4.2295329-6.21 6.8-1.71 2.48-3.14 5.11-5.23 7.32-3.6 3.78-8.74 5.62-13.94 6.1-.7691215-1.9625414-1.1626158-4.0521315-1.16-6.16-.00438-6.2950743 3.4726656-12.07647784 9.0353615-15.02340721 5.562696-2.94692936 12.2989429-2.57618484 17.5046385.96340721z" fill="#9fc9d3"/><path id="Shape" d="m37 14.5c1.3941765-1.5778517 3.3944888-2.4870846 5.5-2.5 3.256 0 5.5 3.24 5.5 6.97s-2.32 10.189-11 13.03c-8.68-2.841-11-9.287-11-13.03s2.244-6.97 5.5-6.97c2.1055112.0129154 4.1058235.9221483 5.5 2.5z" fill="#ff5364"/><path id="Shape" d="m48 18.97c0 3.74-2.32 10.19-11 13.03-3.6195921-1.0411475-6.7675912-3.3023365-8.91-6.4 2.6478596-.9678961 5.0437852-2.5196083 7.01-4.54 2.09-2.21 3.52-4.84 5.23-7.32.39-.57.79-1.12 1.22-1.67.3142199-.0492704.631952-.0726822.95-.07 3.26 0 5.5 3.24 5.5 6.97z" fill="#df4d60"/></g></g></svg>