<svg height="512" viewBox="0 0 60 60" width="512" xmlns="http://www.w3.org/2000/svg"><g id="Page-1" fill="none" fill-rule="evenodd"><g id="037---Mix-CD" fill-rule="nonzero"><path id="Shape" d="m30 .92c-16.0604405 0-29.08 13.0195595-29.08 29.08s13.0195595 29.08 29.08 29.08 29.08-13.0195595 29.08-29.08c-.0143349-16.0544991-13.0255009-29.06566512-29.08-29.08zm0 35.08c-3.3137085 0-6-2.6862915-6-6s2.6862915-6 6-6 6 2.6862915 6 6-2.6862915 6-6 6z" fill="#9fc9d3"/><path id="Shape" d="m30 18c-6.627417 0-12 5.372583-12 12s5.372583 12 12 12 12-5.372583 12-12c-.0055141-6.6251317-5.3748683-11.9944859-12-12zm0 18c-3.3137085 0-6-2.6862915-6-6s2.6862915-6 6-6 6 2.6862915 6 6-2.6862915 6-6 6z" fill="#285680"/><path id="Shape" d="m11.686 14c-.3979999.0002853-.7582798-.2354722-.9173616-.6002968-.1590817-.3648247-.0866765-.7892545.1843616-1.0807032 4.922235-5.29211696 11.8196427-8.30464043 19.047-8.319.5522847.00000001 1 .44771526 1 1s-.4477153.99999999-1 1c-6.6717667.01363544-13.0387409 2.79515795-17.582 7.681-.1886884.2039709-.4541385.319652-.732.319z" fill="#2fa8cc"/><path id="Shape" d="m5 31c-.55228475 0-1-.4477153-1-1-.00259504-2.8296085.45851463-5.6405195 1.365-8.321.17728341-.5232898.7452102-.8037834 1.2685-.6265.52328979.1772834.8037834.7452102.6265 1.2685-.83668338 2.4736448-1.26232396 5.0676877-1.26 7.679 0 .2652165-.10535684.5195704-.29289322.7071068s-.44189029.2928932-.70710678.2928932z" fill="#2fa8cc"/><path id="Shape" d="m14 17.413c-.3899305.0001403-.74438-.2263853-.9080287-.5803132s-.1066463-.7707.1460287-1.0676868c4.1756541-4.9246195 10.3053783-7.76421552 16.762-7.765.5522847.00000002 1 .44771526 1 1s-.4477153.99999998-1 1c-5.8699261.0011308-11.442422 2.5833197-15.238 7.061-.1900798.2234143-.468667.3521055-.762.352z" fill="#fff"/><path id="Shape" d="m9 31c-.55228475 0-1-.4477153-1-1-.00159245-2.1286289.30663827-4.246157.915-6.286.09632686-.3492253.37399334-.6190452.72583574-.7053244.3518424-.0862791.72283396.0244762.96979266.2895206s.3312613.6429261.2203716.9878038c-.5529317 1.8542233-.83286948 3.7790907-.831 5.714 0 .5522847-.44771525 1-1 1z" fill="#fff"/><path id="Shape" d="m46.5 40.96s1.92-3.96 6.25-3.96c3.7 0 6.25 3.153 6.25 6.889 0 4.806-4.4 8.865-10.984 14.553-.8736864.7441543-2.1583136.7441543-3.032 0-6.584-5.688-10.984-9.742-10.984-14.553 0-3.736 2.55-6.889 6.25-6.889 4.33 0 6.25 3.96 6.25 3.96z" fill="#ff5364"/><path id="Shape" d="m22 48.34c.8294011-1.4288044 2.3480709-2.3172263 4-2.34 1.0766112-.0110177 2.1113205.4167024 2.865913 1.1846889.7545924.7679865 1.1640433 1.8100604 1.134087 2.8863111 0 2.84-2.817 5.238-7.03 8.6-.5718681.4398625-1.3681319.4398625-1.94 0-4.213-3.361-7.03-5.759-7.03-8.6-.0299563-1.0762507.3794946-2.1183246 1.134087-2.8863111.7545925-.7679865 1.7893018-1.1957066 2.865913-1.1846889 1.6519291.0227737 3.1705989.9111956 4 2.34z" fill="#ff5364"/><path id="Shape" d="m38 44.889c-.5522847 0-1-.4477153-1-1 0-1.933 1.116-3.889 3.25-3.889.5522847 0 1 .4477153 1 1s-.4477153 1-1 1c-.917 0-1.25 1.129-1.25 1.889 0 .5522847-.4477153 1-1 1z" fill="#fff"/><g fill="#df4d60"><path id="Shape" d="m59 43.89c0 4.8-4.4 8.86-10.98 14.55-.8745682.7499741-2.1654318.7499741-3.04 0-2.49-2.15-4.66-4.06-6.41-5.88.5440673-.7524389 1.2138947-1.4053514 1.98-1.93 2.09-1.42 4.76-1.86 6.74-3.44 1.7086658-1.3887954 2.6944947-3.4781641 2.68-5.68-.0257605-1.1862318-.3452975-2.34756-.93-3.38 1.0944883-.7420285 2.3877005-1.1359179 3.71-1.13 3.7 0 6.25 3.15 6.25 6.89z"/><path id="Shape" d="m30 50.07c0 2.84-2.82 5.24-7.03 8.6-.5718681.4398625-1.3681319.4398625-1.94 0-1.41-1.13-2.67-2.15-3.71-3.11.94-.62 1.96-1.11 2.93-1.69 1.3485356-.6937642 2.4670154-1.7636144 3.22-3.08.6090718-1.2803048.6309726-2.7622562.06-4.06.7323227-.4837542 1.5923602-.7379353 2.47-.73 1.0766906-.0118589 2.111742.4154553 2.8664907 1.1834121s1.1640437 1.810265 1.1335093 2.8865879z"/></g></g></g></svg>