<?xml version="1.0" encoding="UTF-8"?>
<svg xmlns="http://www.w3.org/2000/svg" xmlns:xlink="http://www.w3.org/1999/xlink" width="512" height="512" viewBox="0 0 58 58" version="1.1"><!-- Generator: Sketch 51.3 (57544) - http://www.bohemiancoding.com/sketch --><title>036 - Give Love</title><desc>Created with Sketch.</desc><defs/><g id="Page-1" stroke="none" stroke-width="1" fill="none" fill-rule="evenodd"><g id="036---Give-Love" fill-rule="nonzero"><path d="M56.68,44.57 L37.94,55.98 C36.843244,56.6475556 35.5839408,57.0004372 34.3,57 L9,57.0000004 L9,35 L11.8,35 C13.8715011,35.0028959 15.8808416,35.7079276 17.5,37 C19.1191584,38.2920724 21.1284989,38.9971041 23.2,39 L28.43,39 C30.1883074,38.9973932 31.8181494,39.9205905 32.72,41.43 L32.81,41.58 C33.6626206,43.0049907 33.4358477,44.8274205 32.26,46 L34.61,46 C35.0419935,46.0002223 35.4710725,45.9292722 35.88,45.79 L54.39,39.62 C55.510338,39.2521636 56.7405552,39.6381141 57.45,40.58 L57.45,40.59 C57.9149441,41.2071961 58.0965512,41.9925179 57.9497758,42.7511752 C57.8030004,43.5098325 57.3415928,44.170752 56.68,44.57 Z" id="Shape" fill="#FDD7AD"/><path d="M32.25,45.9999954 C32.0278241,46.6438624 31.6619009,47.2286556 31.18,47.71 C31.1453828,47.7424211 31.1086339,47.7724883 31.07,47.8 C30.9150797,47.9141239 30.7316938,47.9833261 30.54,48 L23.93,48 C22.3531489,47.9976472 20.8111841,48.4640655 19.5,49.34 L18.76,49.83 C18.4634667,50.0283462 18.0834782,50.0528885 17.7638939,49.8943355 C17.4443095,49.7357824 17.233974,49.418367 17.212518,49.0622591 C17.1910619,48.7061512 17.3617646,48.3657776 17.66,48.17 L18.39,47.68 C20.0291512,46.5828912 21.9575749,45.9980985 23.93,46 L32.25,45.9999954 Z" id="Shape" fill="#F09372"/><path d="M35,6.3333 C32.9054276,2.43206663 28.8353627,-0.00141921109 24.4074,-9.99200722e-16 C17.8889,8.8817842e-16 13,3.9583 13,11.875 C13,19.7917 17.8889,22.9583 21.1481,26.125 C24.4073,29.2917 35,38 35,38 C35,38 45.5926,29.2917 48.8519,26.125 C52.1112,22.9583 57,19.7917 57,11.875 C57,3.9583 52.1111,8.8817842e-16 45.5926,8.8817842e-16 C41.1646373,-0.00141921109 37.0945724,2.43206663 35,6.3333 Z" id="Shape" fill="#C03A2B"/><path d="M35,5.6667 C33.1259579,2.1760626 29.4842912,-0.0013064673 25.5224,2.03996165e-15 C19.69,1.81791704e-15 15.3158,3.5417 15.3158,10.625 C15.3158,17.7083 19.6901,20.5417 22.6058,23.375 C25.5215,26.2083 35,34 35,34 C35,34 44.4776,26.2083 47.3938,23.375 C50.31,20.5417 54.6838,17.7083 54.6838,10.625 C54.6838,3.5417 50.31,1.81791704e-15 44.4776,1.81791704e-15 C40.5157088,-0.0013064673 36.8740421,2.1760626 35,5.6667 Z" id="Shape" fill="#E64C3C"/><rect id="Rectangle-path" fill="#894B9D" x="0" y="33" width="9" height="25" rx="2"/><rect id="Rectangle-path" fill="#955BA5" x="0" y="33" width="7" height="25" rx="2"/><path d="M54,30 C53.4477153,30 53,29.5522847 53,29 L53,28 C53,27.4477153 53.4477153,27 54,27 C54.5522847,27 55,27.4477153 55,28 L55,29 C55,29.5522847 54.5522847,30 54,30 Z" id="Shape" fill="#F0C419"/><path d="M57,32 L56,32 C55.4477153,32 55,31.5522847 55,31 C55,30.4477153 55.4477153,30 56,30 L57,30 C57.5522847,30 58,30.4477153 58,31 C58,31.5522847 57.5522847,32 57,32 Z" id="Shape" fill="#F0C419"/><path d="M54,35 C53.4477153,35 53,34.5522847 53,34 L53,33 C53,32.4477153 53.4477153,32 54,32 C54.5522847,32 55,32.4477153 55,33 L55,34 C55,34.5522847 54.5522847,35 54,35 Z" id="Shape" fill="#F0C419"/><path d="M52,32 L51,32 C50.4477153,32 50,31.5522847 50,31 C50,30.4477153 50.4477153,30 51,30 L52,30 C52.5522847,30 53,30.4477153 53,31 C53,31.5522847 52.5522847,32 52,32 Z" id="Shape" fill="#F0C419"/><path d="M11,24 C10.4477153,24 10,23.5522847 10,23 L10,22 C10,21.4477153 10.4477153,21 11,21 C11.5522847,21 12,21.4477153 12,22 L12,23 C12,23.5522847 11.5522847,24 11,24 Z" id="Shape" fill="#F0C419"/><path d="M14,26 L13,26 C12.4477153,26 12,25.5522847 12,25 C12,24.4477153 12.4477153,24 13,24 L14,24 C14.5522847,24 15,24.4477153 15,25 C15,25.5522847 14.5522847,26 14,26 Z" id="Shape" fill="#F0C419"/><path d="M11,29 C10.4477153,29 10,28.5522847 10,28 L10,27 C10,26.4477153 10.4477153,26 11,26 C11.5522847,26 12,26.4477153 12,27 L12,28 C12,28.5522847 11.5522847,29 11,29 Z" id="Shape" fill="#F0C419"/><path d="M9,26 L8,26 C7.44771525,26 7,25.5522847 7,25 C7,24.4477153 7.44771525,24 8,24 L9,24 C9.55228475,24 10,24.4477153 10,25 C10,25.5522847 9.55228475,26 9,26 Z" id="Shape" fill="#F0C419"/><path d="M8,3 C7.44771525,3 7,2.55228475 7,2 L7,1 C7,0.44771525 7.44771525,0 8,0 C8.55228475,-1.11022302e-16 9,0.44771525 9,1 L9,2 C9,2.55228475 8.55228475,3 8,3 Z" id="Shape" fill="#F0C419"/><path d="M11,5 L10,5 C9.44771525,5 9,4.55228475 9,4 C9,3.44771525 9.44771525,3 10,3 L11,3 C11.5522847,3 12,3.44771525 12,4 C12,4.55228475 11.5522847,5 11,5 Z" id="Shape" fill="#F0C419"/><path d="M8,8 C7.44771525,8 7,7.55228475 7,7 L7,6 C7,5.44771525 7.44771525,5 8,5 C8.55228475,5 9,5.44771525 9,6 L9,7 C9,7.55228475 8.55228475,8 8,8 Z" id="Shape" fill="#F0C419"/><path d="M6,5 L5,5 C4.44771525,5 4,4.55228475 4,4 C4,3.44771525 4.44771525,3 5,3 L6,3 C6.55228475,3 7,3.44771525 7,4 C7,4.55228475 6.55228475,5 6,5 Z" id="Shape" fill="#F0C419"/><circle id="Oval" fill="#FB7B76" cx="24" cy="7" r="6"/></g></g></svg>
