<svg height="512" viewBox="0 0 44 58" width="512" xmlns="http://www.w3.org/2000/svg"><g id="Page-1" fill="none" fill-rule="evenodd"><g id="024---GPS-Location" fill-rule="nonzero" transform="translate(0 -1)"><path id="Shape" d="m43.785 26.475c-1.672 13.586-16.466 28.837-20.544 32.09-.7257197.579891-1.7562803.579891-2.482 0-4.647-3.707-20.759-20.173-20.759-35.565-.00067103-5.8927437 2.36269805-11.5394375 6.56058429-15.67491561 4.19788621-4.13547813 9.87934301-6.41401129 15.77141571-6.32508439 13.26.2 23.073 12.312 21.453 25.475z" fill="#35495e"/><circle id="Oval" cx="22" cy="23" fill="#ecf0f1" r="17"/><path id="Shape" d="m27 45h-10c-.3926513-.0003367-.7491638.2291477-.9114493.586693s-.1003082.7769771.1584493 1.072307l5 6c.1898961.217306.464413.3419795.753.3419795s.5631039-.1246735.753-.3419795l5-6c.2587575-.2953299.3207348-.7147617.1584493-1.072307s-.518798-.5870297-.9114493-.586693z" fill="#2c3e50"/><path id="Shape" d="m33 20.19c0 4.07-3.43 8.12-10.66 12.71-.2080564.1298975-.4719436.1298975-.68 0-1.8796208-1.1719003-3.6740891-2.4751454-5.37-3.9-3.57-3.06-5.29-5.93-5.29-8.81 0-3.34 2.24-6.19 5.5-6.19 2.1820233.0221683 4.2236251 1.0800892 5.5 2.85 1.2763749-1.7699108 3.3179767-2.8278317 5.5-2.85.2578455-.0002905.5153118.0197718.77.06 2.84.41 4.73 3.06 4.73 6.13z" fill="#df4d60"/><path id="Shape" d="m29 17.19c0 4.07-3.43 8.12-10.66 12.71-.2080564.1298975-.4719436.1298975-.68 0-.47-.3-.93-.6-1.37-.9-3.57-3.06-5.29-5.93-5.29-8.81 0-3.34 2.24-6.19 5.5-6.19 2.1820233.0221683 4.2236251 1.0800892 5.5 2.85 1.2763749-1.7699108 3.3179767-2.8278317 5.5-2.85.2578455-.0002905.5153118.0197718.77.06.4850762.9717747.735124 2.0438975.73 3.13z" fill="#ff5364"/></g></g></svg>